<?xml version="1.0" encoding="utf-8"?>
    <svg id="svg-logo" style="fill: #fff" version="1.1" xmlns="http://www.w3.org/2000/svg"
        xmlns:xlink="http://www.w3.org/1999/xlink" x="0px" y="0px" viewBox="0 0 800 400"> <g>
            <defs>
                <linearGradient id="grad3" x1="0%" y1="0%" x2="100%" y2="0%">
                    <stop offset="0%" style="stop-color:#FD5D47;stop-opacity:100%" />
                    <stop offset="100%" style="stop-color:#EA406F;stop-opacity:85%" />
                </linearGradient>
                </defs>
        <g>
            <path d="M95,38v323H30V38H95z" />
            <path d="M454.4,38L320.7,198.1L458.1,361h-82.2L258,217.1V361h-65V38h65v144.8L375.9,38H454.4z" />
        </g>
        <g>
            <path class="st0" fill="url('#grad3')" d="M626.1,29.4c-79.7,0-144.5,64.8-144.5,144.5c0,45.4,40.1,99.4,64,127.5c15.2,17.9,62.7,69.1,80.5,69.1
c21.5,0,80.1-68.4,80.7-69.1c23.8-28.1,63.8-82.1,63.8-127.5C770.6,94.2,705.8,29.4,626.1,29.4z M717.5,172.8
c0,50.1-40.7,90.8-90.8,90.8c-50.1,0-90.8-40.7-90.8-90.8S576.6,82,626.7,82C676.7,82,717.5,122.7,717.5,172.8z" />
            <path class="st0" d="M652.8,125.4c-12.3,0-21.4,8.4-26.7,14.2c-5.1-5.8-14-14.2-26.7-14.2c-19.2,0-35.1,15.5-36.2,35.3
c-0.6,12,3.9,20.5,7.4,25.9c8.2,12.6,44.4,39.7,55.5,39.7c11.3,0,46.9-26.7,55.4-39.7c3.5-5.4,8.1-13.9,7.4-25.9
C687.9,140.9,672,125.4,652.8,125.4z" />
        </g>
        </g>
    </svg>